<?xml version="1.0" encoding="utf-8"?>
<COLLADA xmlns="http://www.collada.org/2005/11/COLLADASchema" version="1.4.1" xmlns:xsi="http://www.w3.org/2001/XMLSchema-instance">
  <asset>
    <contributor>
      <author>Blender User</author>
      <authoring_tool>Blender 3.6.23 commit date:2025-06-16, commit time:11:52, hash:e467db79ca8c</authoring_tool>
    </contributor>
    <created>2026-08-06T16:48:32</created>
    <modified>2026-08-06T16:48:32</modified>
    <unit name="meter" meter="1"/>
    <up_axis>Z_UP</up_axis>
  </asset>
  <library_cameras>
    <camera id="Camera_001-camera" name="Camera.001">
      <optics>
        <technique_common>
          <perspective>
            <xfov sid="xfov">39.59775</xfov>
            <aspect_ratio>1.777778</aspect_ratio>
            <znear sid="znear">0.1</znear>
            <zfar sid="zfar">100</zfar>
          </perspective>
        </technique_common>
      </optics>
      <extra>
        <technique profile="blender">
          <shiftx sid="shiftx" type="float">0</shiftx>
          <shifty sid="shifty" type="float">0</shifty>
          <dof_distance sid="dof_distance" type="float">10</dof_distance>
        </technique>
      </extra>
    </camera>
    <camera id="Camera-camera" name="Camera">
      <optics>
        <technique_common>
          <perspective>
            <xfov sid="xfov">39.59775</xfov>
            <aspect_ratio>1.777778</aspect_ratio>
            <znear sid="znear">0.1</znear>
            <zfar sid="zfar">100</zfar>
          </perspective>
        </technique_common>
      </optics>
      <extra>
        <technique profile="blender">
          <shiftx sid="shiftx" type="float">0</shiftx>
          <shifty sid="shifty" type="float">0</shifty>
          <dof_distance sid="dof_distance" type="float">10</dof_distance>
        </technique>
      </extra>
    </camera>
  </library_cameras>
  <library_lights>
    <light id="Light_001-light" name="Light.001">
      <technique_common>
        <point>
          <color sid="color">1000 1000 1000</color>
          <constant_attenuation>1</constant_attenuation>
          <linear_attenuation>0</linear_attenuation>
          <quadratic_attenuation>0.00111109</quadratic_attenuation>
        </point>
      </technique_common>
      <extra>
        <technique profile="blender">
          <type sid="type" type="int">0</type>
          <flag sid="flag" type="int">0</flag>
          <mode sid="mode" type="int">1</mode>
          <gamma sid="blender_gamma" type="float">1</gamma>
          <red sid="red" type="float">1</red>
          <green sid="green" type="float">1</green>
          <blue sid="blue" type="float">1</blue>
          <shadow_r sid="blender_shadow_r" type="float">0</shadow_r>
          <shadow_g sid="blender_shadow_g" type="float">0</shadow_g>
          <shadow_b sid="blender_shadow_b" type="float">0</shadow_b>
          <energy sid="blender_energy" type="float">1000</energy>
          <dist sid="blender_dist" type="float">29.99998</dist>
          <spotsize sid="spotsize" type="float">75</spotsize>
          <spotblend sid="spotblend" type="float">0.15</spotblend>
          <att1 sid="att1" type="float">0</att1>
          <att2 sid="att2" type="float">1</att2>
          <falloff_type sid="falloff_type" type="int">2</falloff_type>
          <clipsta sid="clipsta" type="float">0.04999995</clipsta>
          <clipend sid="clipend" type="float">30.002</clipend>
          <bias sid="bias" type="float">1</bias>
          <bufsize sid="bufsize" type="int">2880</bufsize>
          <samp sid="samp" type="int">3</samp>
          <buffers sid="buffers" type="int">1</buffers>
          <radius sid="radius" type="float">0.1</radius>
          <area_shape sid="area_shape" type="int">1</area_shape>
          <area_size sid="area_size" type="float">0.1</area_size>
          <area_sizey sid="area_sizey" type="float">0.1</area_sizey>
          <area_sizez sid="area_sizez" type="float">1</area_sizez>
        </technique>
      </extra>
    </light>
    <light id="Light-light" name="Light">
      <technique_common>
        <point>
          <color sid="color">1000 1000 1000</color>
          <constant_attenuation>1</constant_attenuation>
          <linear_attenuation>0</linear_attenuation>
          <quadratic_attenuation>0.00111109</quadratic_attenuation>
        </point>
      </technique_common>
      <extra>
        <technique profile="blender">
          <type sid="type" type="int">0</type>
          <flag sid="flag" type="int">0</flag>
          <mode sid="mode" type="int">1</mode>
          <gamma sid="blender_gamma" type="float">1</gamma>
          <red sid="red" type="float">1</red>
          <green sid="green" type="float">1</green>
          <blue sid="blue" type="float">1</blue>
          <shadow_r sid="blender_shadow_r" type="float">0</shadow_r>
          <shadow_g sid="blender_shadow_g" type="float">0</shadow_g>
          <shadow_b sid="blender_shadow_b" type="float">0</shadow_b>
          <energy sid="blender_energy" type="float">1000</energy>
          <dist sid="blender_dist" type="float">29.99998</dist>
          <spotsize sid="spotsize" type="float">75</spotsize>
          <spotblend sid="spotblend" type="float">0.15</spotblend>
          <att1 sid="att1" type="float">0</att1>
          <att2 sid="att2" type="float">1</att2>
          <falloff_type sid="falloff_type" type="int">2</falloff_type>
          <clipsta sid="clipsta" type="float">0.04999995</clipsta>
          <clipend sid="clipend" type="float">30.002</clipend>
          <bias sid="bias" type="float">1</bias>
          <bufsize sid="bufsize" type="int">2880</bufsize>
          <samp sid="samp" type="int">3</samp>
          <buffers sid="buffers" type="int">1</buffers>
          <radius sid="radius" type="float">0.1</radius>
          <area_shape sid="area_shape" type="int">1</area_shape>
          <area_size sid="area_size" type="float">0.1</area_size>
          <area_sizey sid="area_sizey" type="float">0.1</area_sizey>
          <area_sizez sid="area_sizez" type="float">1</area_sizez>
        </technique>
      </extra>
    </light>
  </library_lights>
  <library_effects>
    <effect id="wood-effect">
      <profile_COMMON>
        <newparam sid="wood_jpg-surface">
          <surface type="2D">
            <init_from>wood_jpg</init_from>
          </surface>
        </newparam>
        <newparam sid="wood_jpg-sampler">
          <sampler2D>
            <source>wood_jpg-surface</source>
          </sampler2D>
        </newparam>
        <technique sid="common">
          <lambert>
            <emission>
              <color sid="emission">0 0 0 1</color>
            </emission>
            <diffuse>
              <texture texture="wood_jpg-sampler" texcoord="room-mesh-map-0"/>
            </diffuse>
            <index_of_refraction>
              <float sid="ior">1.45</float>
            </index_of_refraction>
          </lambert>
        </technique>
      </profile_COMMON>
    </effect>
    <effect id="brick-effect">
      <profile_COMMON>
        <newparam sid="square_brick_floor_diff_1k_jpg_001-surface">
          <surface type="2D">
            <init_from>square_brick_floor_diff_1k_jpg_001</init_from>
          </surface>
        </newparam>
        <newparam sid="square_brick_floor_diff_1k_jpg_001-sampler">
          <sampler2D>
            <source>square_brick_floor_diff_1k_jpg_001-surface</source>
          </sampler2D>
        </newparam>
        <technique sid="common">
          <lambert>
            <emission>
              <color sid="emission">0 0 0 1</color>
            </emission>
            <diffuse>
              <texture texture="square_brick_floor_diff_1k_jpg_001-sampler" texcoord="room-mesh-map-0"/>
            </diffuse>
            <index_of_refraction>
              <float sid="ior">1.45</float>
            </index_of_refraction>
          </lambert>
        </technique>
      </profile_COMMON>
    </effect>
  </library_effects>
  <library_images>
    <image id="square_brick_floor_diff_1k_jpg_001" name="square_brick_floor_diff_1k_jpg_001">
      <init_from>square_brick_floor_diff_1k.jpg.001.jpg</init_from>
    </image>
    <image id="wood_jpg" name="wood_jpg">
      <init_from>wood.jpg</init_from>
    </image>
  </library_images>
  <library_materials>
    <material id="wood-material" name="wood">
      <instance_effect url="#wood-effect"/>
    </material>
    <material id="brick-material" name="brick">
      <instance_effect url="#brick-effect"/>
    </material>
  </library_materials>
  <library_geometries>
    <geometry id="room-mesh" name="room">
      <mesh>
        <source id="room-mesh-positions">
          <float_array id="room-mesh-positions-array" count="315">2.25 9 0 11 9 0 2.25 9 3 11 9 3 2.25 4 0 2.25 4 3 2.002989 4 0 2.002989 4 3 2.017935 8.999546 0 2.017935 8.999546 3 -11 8.999906 0 -11 8.999906 3 -11 0.125 0 -11 0.125 3 -8 0.125 0 -8 0.125 3 -8 -0.125 0 -8 -0.125 3 -11 -0.125 0 -11 -0.125 3 -11 -9 0 -11 -9 3 -2 -9 0 -2 -9 3 -2 -2.5 0 -2 -2.5 3 -1.75 -2.5 0 -1.75 -2.5 3 -1.75 -9 0 -1.75 -9 3 11 -9 0 11 -9 3 11 -0.1060963 0 11 -0.1060963 3 8.015941 -0.1060963 0 8.015941 -0.1060963 3 8.015941 0.1060963 0 8.015941 0.1060963 3 11 0.1060963 0 11 0.1060963 3 -11.25 -9.25 0 11.25 -9.25 0 -11.25 -9.25 3 11.25 -9.25 3 -11.25 9.25 0 -11.25 9.25 3 11.25 9.25 0 11.25 9.25 3 6.25 2 0 6.25 7 0 6.25 2 3 6.25 7 3 6 2 0 6 2 3 6 7 0 6 7 3 6 -2 0 6 -7 0 6 -2 3 6 -7 3 6.25 -2 0 6.25 -2 3 6.25 -7 0 6.25 -7 3 2.25 -8 0 2.25 -4 0 2.25 -8 3 2.25 -4 3 2 -8 0 2 -8 3 2 -4 0 2 -4 3 -7 -1.5 0 -7 -7 0 -7 -1.5 3 -7 -7 3 -6.75 -1.5 0 -6.75 -1.5 3 -6.75 -7 0 -6.75 -7 3 -7 7 0 -7 1.5 0 -7 7 3 -7 1.5 3 -6.75 7 0 -6.75 7 3 -6.75 1.5 0 -6.75 1.5 3 -5.5 -0.75 0 -5.5 -1 0 -5.5 -0.75 3 -5.5 -1 3 5.5 -0.75 0 5.5 -0.75 3 5.5 -1 0 5.5 -1 3 5.5 0.75 0 5.5 1 0 5.5 0.75 3 5.5 1 3 -5.5 0.75 0 -5.5 0.75 3 -5.5 1 0 -5.5 1 3 4.246353 0.8233308 -5.993109</float_array>
          <technique_common>
            <accessor source="#room-mesh-positions-array" count="105" stride="3">
              <param name="X" type="float"/>
              <param name="Y" type="float"/>
              <param name="Z" type="float"/>
            </accessor>
          </technique_common>
        </source>
        <source id="room-mesh-normals">
          <float_array id="room-mesh-normals-array" count="30">0 -1 0 1 0 0 -0.9999956 0.002989411 0 -2.76917e-5 -1 0 -2.76917e-5 -1 0 0 1 0 -1 0 0 0 0 1 8.98876e-6 0 1 0 0 -1</float_array>
          <technique_common>
            <accessor source="#room-mesh-normals-array" count="10" stride="3">
              <param name="X" type="float"/>
              <param name="Y" type="float"/>
              <param name="Z" type="float"/>
            </accessor>
          </technique_common>
        </source>
        <source id="room-mesh-map-0">
          <float_array id="room-mesh-map-0-array" count="1080">0.7995185 1.186063 0.9143545 0.2042124 -0.1823319 0.9250572 -0.08642077 0.3201882 1.086183 0.6780368 0.3811992 -0.3847951 0.998999 0.998999 0.998999 0.002001941 0.002001941 0.998999 0.2808107 1.338909 0.7181884 -0.3399097 -0.09850376 0.5222166 0.9661047 0.7342895 0.9718238 0.7342895 0.9661047 0.8037492 0.9661047 0.8037492 0.9718238 0.7342895 0.9718238 0.8037492 0.998999 0.998999 0.998999 0.002001941 0.002001941 0.998999 0.5988124 1.388819 0.4001866 -0.3898202 -0.005328536 0.9833039 0.8303542 1.252262 0.8302966 -0.2508099 0.1690394 1.252319 0.8212547 1.260256 0.1793751 -0.2618443 -0.08957082 0.6489811 0.5260033 -0.4015157 -0.06001687 0.8144946 1.061018 0.1845043 0.997998 0.998999 0.001001 0.002002 0.001001 0.998999 0.9878416 -0.02247262 0.6305497 1.380765 0.3704513 -0.3797644 0.001001 0.997998 0.997998 0.001001 0.001001 0.001001 0.9454309 0.8732088 0.9512192 0.8732088 0.9454309 0.9426684 0.9454309 0.9426684 0.9512192 0.8732088 0.9512192 0.9426684 0.8311578 -0.2510352 0.8311578 1.252036 0.1698432 -0.2510352 0.001001 0.997998 0.997998 0.001001 0.001001 0.001001 0.1681061 -0.2492914 0.1715844 1.253771 0.8294166 -0.2527698 0.3808178 -0.3844081 0.6181812 1.383407 1.085801 0.6784239 0.2339482 -0.3082348 -0.09670901 0.55519 1.097373 0.4433009 0.8303254 1.25229 0.1690106 -0.2507811 0.1690107 1.25229 1.004428 -5.20945e-4 -0.007080674 -0.00228095 0.9865504 1.004184 0.001001 0.997998 0.997998 0.001001 0.001001 0.001001 0.9581105 0.8732088 0.9523222 0.8732088 0.9581105 0.9426684 0.9581105 0.9426684 0.9523222 0.8732088 0.9523222 0.9426684 0.998999 0.998999 0.998999 0.002001941 0.002001941 0.998999 0.7385699 1.326181 0.260429 -0.3271821 0.08730226 1.153054 9.98525e-4 0.001006543 0.001003444 0.9980037 0.9979956 9.95278e-4 1.036111 0.9020911 -0.03510701 0.09890341 0.4633978 1.400596 0.8309893 -0.2522904 0.1696746 -0.2522903 0.8309893 1.250781 0.4533233 1.399879 0.5460128 -0.39837 -0.06779974 0.7860665 0.998999 0.998999 0.002001941 0.998999 0.998999 0.002001941 0.6181812 -0.3844082 0.3808178 1.383407 -0.08680212 0.6784238 0.9710177 0.8048521 0.9661048 0.8048521 0.9710177 0.8743118 0.9710177 0.8743118 0.9661048 0.8048521 0.9661048 0.8743118 0.998999 0.998999 0.002001941 0.998999 0.998999 0.002001941 0.4728166 -0.4014381 0.5261824 1.400437 -0.0406748 0.8869456 0.3811991 -0.3847951 -0.08642083 0.3201882 1.086183 0.6780368 0.833289 0.1056313 -0.1637079 1.102628 0.833289 1.102628 0.998999 0.998999 0.998999 0.002001941 0.002001941 0.998999 0.001001 0.997998 0.997998 0.001001 0.001001 0.001001 0.998999 0.998999 0.998999 0.002001941 0.002001941 0.998999 0.001001 0.997998 0.997998 0.001001 0.001001 0.001001 0.998999 0.998999 0.998999 0.002001941 0.002001941 0.998999 0.001001 0.997998 0.997998 0.001001 0.001001 0.001001 0.998999 0.998999 0.998999 0.002001941 0.002001941 0.998999 0.001001 0.997998 0.997998 0.001001 0.001001 0.001001 0.4230976 0.2089303 0.4230976 0.006339669 0.4288859 5.51467e-4 0.4288859 5.51467e-4 0.4230976 0.006339669 0.2171751 0.006339669 0.4288859 5.51467e-4 0.2171751 0.006339669 5.51464e-4 5.51486e-4 5.51464e-4 5.51486e-4 0.2171751 0.006339669 0.2122622 0.006339669 5.51464e-4 5.51486e-4 0.2122622 0.006339669 0.006339669 0.006339788 0.2171751 0.006339669 0.2171751 0.07543033 0.2122622 0.006339669 0.2122622 0.006339669 0.2171751 0.07543033 0.2122622 0.07543033 0.006339669 0.006339788 0.006339669 0.3015432 5.51464e-4 5.51486e-4 5.51464e-4 5.51486e-4 0.006339669 0.3015432 5.51486e-4 0.5214987 5.51486e-4 0.5214987 0.006339669 0.3015432 0.006339669 0.3073315 5.51486e-4 0.5214987 0.006339669 0.3073315 0.006339788 0.5157105 0.1568356 0.3015432 0.1568356 0.3073315 0.006339669 0.3015432 0.006339669 0.3015432 0.1568356 0.3073315 0.006339669 0.3073315 0.006339788 0.5157105 0.2118245 0.5157104 5.51486e-4 0.5214987 5.51486e-4 0.5214987 0.2118245 0.5157104 0.2176128 0.5157104 5.51486e-4 0.5214987 0.2176128 0.5157104 0.4288859 0.5214987 0.4288859 0.5214987 0.2176128 0.5157104 0.4230954 0.5157104 0.4288859 0.5214987 0.4230954 0.5157104 0.423087 0.2143034 0.2118245 0.5157104 0.2118245 0.4462508 0.2176128 0.5157104 0.2176128 0.5157104 0.2118245 0.4462508 0.2176128 0.4462508 0.3073315 0.2146494 0.3073315 0.2089303 0.423087 0.2143034 0.423087 0.2143034 0.3073315 0.2089303 0.4230976 0.2089303 0.423087 0.2143034 0.4230976 0.2089303 0.4288859 5.51467e-4 0.4288859 5.51467e-4 0.4288859 0.5214987 0.423087 0.2143034 0.852535 0.006339669 0.8583233 5.5147e-4 0.6466126 0.006339669 0.6466126 0.006339669 0.8583233 5.5147e-4 0.4299889 5.51489e-4 0.6466126 0.006339669 0.4299889 5.51489e-4 0.6416996 0.006339669 0.6416996 0.006339669 0.4299889 5.51489e-4 0.4357772 0.006339788 0.4357772 0.006339788 0.4299889 5.51489e-4 0.4357772 0.3015432 0.4357772 0.3015432 0.4299889 5.51489e-4 0.4299889 0.5214987 0.4357772 0.3015432 0.4299889 0.5214987 0.4357772 0.3073315 0.4357772 0.3073315 0.4299889 0.5214987 0.4357772 0.5157105 0.4357772 0.5157105 0.4299889 0.5214987 0.6412619 0.5157105 0.6412619 0.5157105 0.4299889 0.5214987 0.6470503 0.5157105 0.6412619 0.5157105 0.6470503 0.5157105 0.6470503 0.4462508 0.852535 0.006339669 0.852535 0.2089303 0.8583233 5.5147e-4 0.8583233 5.5147e-4 0.852535 0.2089303 0.8525245 0.2143034 0.8583233 5.5147e-4 0.8525245 0.2143034 0.8583233 0.5214987 0.8583233 0.5214987 0.8525245 0.2143034 0.8525328 0.5157104 0.8583233 0.5214987 0.8525328 0.5157104 0.6470503 0.5157105 0.852535 0.2089303 0.736769 0.2089304 0.8525245 0.2143034 0.8525245 0.2143034 0.736769 0.2089304 0.736769 0.2146494 0.6470503 0.4462508 0.6412619 0.4462508 0.6412619 0.5157105 0.5862731 0.3073315 0.5862731 0.3015432 0.4357772 0.3073315 0.4357772 0.3073315 0.5862731 0.3015432 0.4357772 0.3015432 0.6416996 0.006339669 0.6416996 0.07543033 0.6466126 0.006339669 0.6466126 0.006339669 0.6416996 0.07543033 0.6466126 0.07543033 0.4299889 0.5214987 0.8583233 0.5214987 0.6470503 0.5157105 1.005329 0.01669603 0.4011877 -0.3888192 0.5998134 1.38982 0.001001 0.997998 0.997998 0.001001 0.001001 0.001001 0.5650526 0.8952591 0.5708409 0.8952591 0.5650526 0.9647187 0.5650526 0.9647187 0.5708409 0.8952591 0.5708409 0.9647187 0.187442 1.268976 0.8483538 1.234181 0.1526473 -0.2331801 0.001001 0.997998 0.997998 0.001001 0.001001 0.001001 0.5777322 0.8952591 0.5719439 0.8952591 0.5777322 0.9647187 0.5777322 0.9647187 0.5719439 0.8952591 0.5719439 0.9647187 0.5708409 0.8941561 0.5650526 0.8941561 0.5708409 0.7783901 0.5708409 0.7783901 0.5650526 0.8941561 0.5650526 0.7783901 0.5719439 0.8941561 0.5777322 0.8941561 0.5719439 0.7783901 0.5719439 0.7783901 0.5777322 0.8941561 0.5777322 0.7783901 1.057286 0.1708054 0.515569 -0.4010486 0.4854321 1.40205 0.001001 0.997998 0.997998 0.001001 0.001001 0.001001 0.5846235 0.8952591 0.5788351 0.8952591 0.5846235 0.9647187 0.5846235 0.9647187 0.5788351 0.8952591 0.5788351 0.9647187 0.998999 0.998999 0.998999 0.002001941 0.002001941 0.998999 0.1441556 1.224975 0.8548434 -0.2259761 -0.08202725 0.2881045 0.5857264 0.8952591 0.5915147 0.8952591 0.5857264 0.9647187 0.5857264 0.9647187 0.5915147 0.8952591 0.5915147 0.9647187 0.5788351 0.7783901 0.5846235 0.7783901 0.5788351 0.8941561 0.5788351 0.8941561 0.5846235 0.7783901 0.5846235 0.8941561 0.5915147 0.7783901 0.5857264 0.7783901 0.5915147 0.8941561 0.5915147 0.8941561 0.5857264 0.7783901 0.5857264 0.8941561 1.036107 0.09890067 0.4633921 -0.3995978 0.5376089 1.400599 0.001001 0.997998 0.997998 0.001001 0.001001 0.001001 0.9592134 0.5226017 0.9650018 0.5226017 0.9592134 0.5920614 0.9592134 0.5920614 0.9650018 0.5226017 0.9650018 0.5920614 0.998999 0.998999 0.998999 0.002001941 0.002001941 0.998999 0.7095443 1.343911 0.2894547 -0.3449121 0.06517916 1.119636 0.9650018 0.5931643 0.9592134 0.5931643 0.9650018 0.662624 0.9650018 0.662624 0.9592134 0.5931643 0.9592134 0.662624 0.9512192 0.8721058 0.9454309 0.8721058 0.9512192 0.779493 0.9512192 0.779493 0.9454309 0.8721058 0.9454309 0.779493 0.9523222 0.8721058 0.9581105 0.8721058 0.9523222 0.779493 0.9523222 0.779493 0.9581105 0.8721058 0.9581105 0.779493 1.036107 0.09890067 0.4633921 -0.3995978 0.5376089 1.400599 0.8301568 1.251035 0.1688421 -0.2520362 0.1688422 1.251035 0.9650018 0.6637269 0.9592134 0.6637269 0.9650018 0.7331866 0.9650018 0.7331866 0.9592134 0.6637269 0.9592134 0.7331866 1.086802 0.3215762 0.6191822 -0.3834072 0.3818188 1.384408 0.001001 0.997998 0.997998 0.001001 0.001001 0.001001 0.2828021 0.9057327 0.2828021 0.8999444 0.3522617 0.9057327 0.3522617 0.9057327 0.2828021 0.8999444 0.3522617 0.8999444 0.8748683 0.5226017 0.8806566 0.5226017 0.8748683 0.6499444 0.8748683 0.6499444 0.8806566 0.5226017 0.8806566 0.6499444 0.8806566 0.6510474 0.8748683 0.6510474 0.8806566 0.7783901 0.8806566 0.7783901 0.8748683 0.6510474 0.8748683 0.7783901 0.6191822 1.384408 1.086802 0.6794248 -0.08580118 0.3215761 0.001001 0.997998 0.997998 0.001001 0.001001 0.001001 0.9650018 0.7342895 0.9592134 0.7342895 0.9650018 0.8037492 0.9650018 0.8037492 0.9592134 0.7342895 0.9592134 0.8037492 1.074227 0.2452194 0.5676311 -0.3956379 0.43337 1.396639 0.001001 0.997998 0.997998 0.001001 0.001001 0.001001 0.9592134 0.8048521 0.9650018 0.8048521 0.9592134 0.8743118 0.9592134 0.8743118 0.9650018 0.8048521 0.9650018 0.8743118 0.8817596 0.5226017 0.8875479 0.5226017 0.8817596 0.6499444 0.8817596 0.6499444 0.8875479 0.5226017 0.8875479 0.6499444 0.8875479 0.6510474 0.8817596 0.6510474 0.8875479 0.7783901 0.8875479 0.7783901 0.8817596 0.6510474 0.8817596 0.7783901 0.9650018 0.8754148 0.9592134 0.8754148 0.9650018 0.9448744 0.9650018 0.9448744 0.9592134 0.8754148 0.9592134 0.9448744 1.097541 0.556445 0.7668842 -0.3069797 0.2341167 1.307981 0.001001 0.997998 0.997998 0.001001 0.001001 0.001001 0.9661048 0.5226017 0.971893 0.5226017 0.9661048 0.5920614 0.9661048 0.5920614 0.971893 0.5226017 0.971893 0.5920614 1.098665 0.5092608 0.7384877 -0.3268913 0.2625133 1.327892 -0.09754145 0.555444 1.09654 0.443555 0.2331157 -0.3079807 0.5650525 0.7772871 0.5650525 0.5226017 0.5708408 0.7772871 0.5708408 0.7772871 0.5650525 0.5226017 0.5708408 0.5226017 0.5719438 0.5226017 0.5719438 0.7772871 0.5777322 0.5226017 0.5777322 0.5226017 0.5719438 0.7772871 0.5777322 0.7772871 0.9661048 0.5931643 0.971893 0.5931643 0.9661048 0.662624 0.9661048 0.662624 0.971893 0.5931643 0.971893 0.662624 0.3481498 0.2141429 -0.1503484 0.7868582 1.649848 0.7126412 0.8578581 1.165745 0.06023365 -0.4296566 0.07478237 0.8456479 0.971893 0.6637269 0.9661048 0.6637269 0.971893 0.7331866 0.971893 0.7331866 0.9661048 0.6637269 0.9661048 0.7331866 0.007279038 -0.006380796 0.9972791 -7.57903e-4 -0.01086944 0.9915574 0.9973222 3.26097e-4 0.001676797 0.9986729 0.9986729 0.9973222 0.5846235 0.5226017 0.5846235 0.7772871 0.5788351 0.5226017 0.5788351 0.5226017 0.5846235 0.7772871 0.5788351 0.7772871 0.5915148 0.7772871 0.5915148 0.5226017 0.5857264 0.7772871 0.5857264 0.7772871 0.5915148 0.5226017 0.5857264 0.5226017</float_array>
          <technique_common>
            <accessor source="#room-mesh-map-0-array" count="540" stride="2">
              <param name="S" type="float"/>
              <param name="T" type="float"/>
            </accessor>
          </technique_common>
        </source>
        <vertices id="room-mesh-vertices">
          <input semantic="POSITION" source="#room-mesh-positions"/>
        </vertices>
        <triangles material="wood-material" count="166">
          <input semantic="VERTEX" source="#room-mesh-vertices" offset="0"/>
          <input semantic="NORMAL" source="#room-mesh-normals" offset="1"/>
          <input semantic="TEXCOORD" source="#room-mesh-map-0" offset="2" set="0"/>
          <p>0 0 0 1 0 1 2 0 2 2 0 3 1 0 4 3 0 5 4 1 6 0 1 7 5 1 8 5 1 9 0 1 10 2 1 11 6 0 12 4 0 13 7 0 14 7 0 15 4 0 16 5 0 17 8 2 18 6 2 19 9 2 20 9 2 21 6 2 22 7 2 23 10 3 24 8 3 25 11 3 26 11 4 27 8 4 28 9 4 29 12 1 30 10 1 31 13 1 32 13 1 33 10 1 34 11 1 35 14 5 36 12 5 37 15 5 38 15 5 39 12 5 40 13 5 41 16 1 42 14 1 43 17 1 44 17 1 45 14 1 46 15 1 47 18 0 48 16 0 49 19 0 50 19 0 51 16 0 52 17 0 53 22 5 60 20 5 61 23 5 62 23 5 63 20 5 64 21 5 65 26 5 72 24 5 73 27 5 74 27 5 75 24 5 76 25 5 77 28 1 78 26 1 79 29 1 80 29 1 81 26 1 82 27 1 83 30 5 84 28 5 85 31 5 86 31 5 87 28 5 88 29 5 89 32 6 90 30 6 91 33 6 92 33 6 93 30 6 94 31 6 95 34 0 96 32 0 97 35 0 98 35 0 99 32 0 100 33 0 101 36 6 102 34 6 103 37 6 104 37 6 105 34 6 106 35 6 107 38 5 108 36 5 109 39 5 110 39 5 111 36 5 112 37 5 113 1 6 114 38 6 115 3 6 116 3 6 117 38 6 118 39 6 119 40 0 120 41 0 121 42 0 122 42 0 123 41 0 124 43 0 125 44 6 126 40 6 127 45 6 128 45 6 129 40 6 130 42 6 131 46 5 132 44 5 133 47 5 134 47 5 135 44 5 136 45 5 137 41 1 138 46 1 139 43 1 140 43 1 141 46 1 142 47 1 143 2 7 144 3 7 145 47 7 146 47 7 147 3 7 148 39 7 149 47 7 150 39 7 151 43 7 152 43 8 153 39 8 154 33 8 155 43 7 156 33 7 157 31 7 158 39 7 159 37 7 160 33 7 161 33 7 162 37 7 163 35 7 164 31 7 165 29 7 166 43 7 167 43 7 168 29 7 169 42 7 170 42 7 171 29 7 172 23 7 173 42 7 174 23 7 175 21 7 176 27 7 177 25 7 178 29 7 179 29 7 180 25 7 181 23 7 182 21 7 183 19 7 184 42 7 185 42 7 186 19 7 187 13 7 188 42 7 189 13 7 190 45 7 191 45 7 192 13 7 193 11 7 194 45 7 195 11 7 196 9 7 197 19 7 198 17 7 199 13 7 200 13 7 201 17 7 202 15 7 203 7 7 204 5 7 205 9 7 206 9 7 207 5 7 208 2 7 209 9 7 210 2 7 211 47 7 212 47 7 213 45 7 214 9 7 215 1 9 216 46 9 217 38 9 218 38 9 219 46 9 220 41 9 221 38 9 222 41 9 223 32 9 224 32 9 225 41 9 226 30 9 227 30 9 228 41 9 229 28 9 230 28 9 231 41 9 232 40 9 233 28 9 234 40 9 235 22 9 236 22 9 237 40 9 238 20 9 239 20 9 240 40 9 241 18 9 242 18 9 243 40 9 244 12 9 245 18 9 246 12 9 247 14 9 248 1 9 249 0 9 250 46 9 251 46 9 252 0 9 253 8 9 254 46 9 255 8 9 256 44 9 257 44 9 258 8 9 259 10 9 260 44 9 261 10 9 262 12 9 263 0 9 264 4 9 265 8 9 266 8 9 267 4 9 268 6 9 269 14 9 270 16 9 271 18 9 272 24 9 273 26 9 274 22 9 275 22 9 276 26 9 277 28 9 278 32 9 279 34 9 280 38 9 281 38 9 282 34 9 283 36 9 284 40 9 285 44 9 286 12 9 287 48 1 288 49 1 289 50 1 290 50 1 291 49 1 292 51 1 293 52 0 294 48 0 295 53 0 296 53 0 297 48 0 298 50 0 299 54 6 300 52 6 301 55 6 302 55 6 303 52 6 304 53 6 305 49 5 306 54 5 307 51 5 308 51 5 309 54 5 310 55 5 311 51 7 312 55 7 313 50 7 314 50 7 315 55 7 316 53 7 317 54 9 318 49 9 319 52 9 320 52 9 321 49 9 322 48 9 323 56 6 324 57 6 325 58 6 326 58 6 327 57 6 328 59 6 329 60 5 330 56 5 331 61 5 332 61 5 333 56 5 334 58 5 335 62 1 336 60 1 337 63 1 338 63 1 339 60 1 340 61 1 341 57 0 342 62 0 343 59 0 344 59 0 345 62 0 346 63 0 347 59 7 348 63 7 349 58 7 350 58 7 351 63 7 352 61 7 353 62 9 354 57 9 355 60 9 356 60 9 357 57 9 358 56 9 359 64 1 360 65 1 361 66 1 362 66 1 363 65 1 364 67 1 365 68 0 366 64 0 367 69 0 368 69 0 369 64 0 370 66 0 371 70 6 372 68 6 373 71 6 374 71 6 375 68 6 376 69 6 377 65 5 378 70 5 379 67 5 380 67 5 381 70 5 382 71 5 383 67 7 384 71 7 385 66 7 386 66 7 387 71 7 388 69 7 389 70 9 390 65 9 391 68 9 392 68 9 393 65 9 394 64 9 395 72 6 396 73 6 397 74 6 398 74 6 399 73 6 400 75 6 401 76 5 402 72 5 403 77 5 404 77 5 405 72 5 406 74 5 407 78 1 408 76 1 409 79 1 410 79 1 411 76 1 412 77 1 413 73 0 414 78 0 415 75 0 416 75 0 417 78 0 418 79 0 419 75 7 420 79 7 421 74 7 422 74 7 423 79 7 424 77 7 425 78 9 426 73 9 427 76 9 428 76 9 429 73 9 430 72 9 431 80 6 432 81 6 433 82 6 434 82 6 435 81 6 436 83 6 437 84 5 438 80 5 439 85 5 440 85 5 441 80 5 442 82 5 443 86 1 444 84 1 445 87 1 446 87 1 447 84 1 448 85 1 449 81 0 450 86 0 451 83 0 452 83 0 453 86 0 454 87 0 455 83 7 456 87 7 457 82 7 458 82 7 459 87 7 460 85 7 461 86 9 462 81 9 463 84 9 464 84 9 465 81 9 466 80 9 467 88 6 468 89 6 469 90 6 470 90 6 471 89 6 472 91 6 473 92 5 474 88 5 475 93 5 476 93 5 477 88 5 478 90 5 479 94 1 480 92 1 481 95 1 482 95 1 483 92 1 484 93 1 485 89 0 486 94 0 487 91 0 488 91 0 489 94 0 490 95 0 491 91 7 492 95 7 493 90 7 494 90 7 495 95 7 496 93 7 497 94 9 498 89 9 499 92 9 500 92 9 501 89 9 502 88 9 503 102 9 534 97 9 535 100 9 536 100 9 537 97 9 538 96 9 539</p>
        </triangles>
        <triangles material="brick-material" count="14">
          <input semantic="VERTEX" source="#room-mesh-vertices" offset="0"/>
          <input semantic="NORMAL" source="#room-mesh-normals" offset="1"/>
          <input semantic="TEXCOORD" source="#room-mesh-map-0" offset="2" set="0"/>
          <p>20 1 54 18 1 55 21 1 56 21 1 57 18 1 58 19 1 59 24 6 66 22 6 67 25 6 68 25 6 69 22 6 70 23 6 71 96 1 504 97 1 505 98 1 506 98 1 507 97 1 508 99 1 509 100 0 510 96 0 511 101 0 512 101 0 513 96 0 514 98 0 515 102 6 516 100 6 517 103 6 518 103 6 519 100 6 520 101 6 521 97 5 522 102 5 523 99 5 524 99 5 525 102 5 526 103 5 527 99 7 528 103 7 529 98 7 530 98 7 531 103 7 532 101 7 533</p>
        </triangles>
      </mesh>
    </geometry>
  </library_geometries>
  <library_visual_scenes>
    <visual_scene id="Scene" name="Scene">
      <node id="Light_001" name="Light.001" type="NODE">
        <matrix sid="transform">-0.2908648 -0.7711008 0.5663932 4.076245 0.9551711 -0.1998834 0.2183913 1.005454 -0.05518911 0.6045247 0.7946723 5.903862 0 0 0 1</matrix>
        <instance_light url="#Light_001-light"/>
      </node>
      <node id="Camera_001" name="Camera.001" type="NODE">
        <matrix sid="transform">0.6859207 -0.3240135 0.6515582 7.358891 0.7276763 0.3054209 -0.6141704 -6.925791 -4.01133e-9 0.8953956 0.4452714 4.958309 0 0 0 1</matrix>
        <instance_camera url="#Camera_001-camera"/>
      </node>
      <node id="room" name="room" type="NODE">
        <matrix sid="transform">1 0 0 0 0 1 0 0 0 0 1 0 0 0 0 1</matrix>
        <instance_geometry url="#room-mesh" name="room">
          <bind_material>
            <technique_common>
              <instance_material symbol="wood-material" target="#wood-material">
                <bind_vertex_input semantic="room-mesh-map-0" input_semantic="TEXCOORD" input_set="0"/>
              </instance_material>
              <instance_material symbol="brick-material" target="#brick-material">
                <bind_vertex_input semantic="room-mesh-map-0" input_semantic="TEXCOORD" input_set="0"/>
              </instance_material>
            </technique_common>
          </bind_material>
        </instance_geometry>
      </node>
      <node id="Camera" name="Camera" type="NODE">
        <matrix sid="transform">0.6859207 -0.3240135 0.6515582 7.358891 0.7276763 0.3054208 -0.6141704 -6.925791 0 0.8953956 0.4452714 4.958309 0 0 0 1</matrix>
        <instance_camera url="#Camera-camera"/>
      </node>
      <node id="Light" name="Light" type="NODE">
        <matrix sid="transform">-0.2908646 -0.7711008 0.5663932 4.076245 0.9551712 -0.1998834 0.2183912 1.005454 -0.05518906 0.6045247 0.7946723 5.903862 0 0 0 1</matrix>
        <instance_light url="#Light-light"/>
      </node>
    </visual_scene>
  </library_visual_scenes>
  <scene>
    <instance_visual_scene url="#Scene"/>
  </scene>
</COLLADA>